<svg width="25" height="26" viewBox="0 0 25 26" fill="none" xmlns="http://www.w3.org/2000/svg">
<g clip-path="url(#clip0_6010_3627)">
<path d="M23.1453 11.0347C23.6101 11.8945 24.076 12.7184 24.4919 13.5767C24.607 13.8137 24.591 13.9804 24.5261 14.103C24.4533 14.2404 24.2806 14.3939 23.95 14.5142L18.74 16.3882C17.7454 16.7458 16.755 17.1056 15.7625 17.4585C15.4609 17.5661 15.2993 17.5625 15.196 17.5249C15.0944 17.4878 14.9688 17.3878 14.8113 17.1069C14.3481 16.2802 13.9033 15.4463 13.4109 14.5356C13.4293 14.5298 13.4481 14.5253 13.4656 14.519L13.4666 14.5181C16.611 13.391 19.7497 12.2465 22.8884 11.1108L22.8894 11.1099C22.9719 11.0797 23.0488 11.0593 23.1453 11.0347ZM7.34351 12.7036C9.03301 13.3132 10.7248 13.9369 12.4275 14.5298C11.9714 15.3789 11.5575 16.1584 11.1335 16.9351C10.9065 17.3509 10.7667 17.4783 10.6521 17.521C10.536 17.5641 10.3459 17.5583 9.90112 17.3979C7.2559 16.443 4.60896 15.4885 1.96265 14.5337C1.52005 14.3739 1.35642 14.2086 1.30347 14.0728C1.25762 13.9549 1.25791 13.7645 1.40601 13.4429L1.47925 13.2964C1.87527 12.5494 2.27977 11.808 2.69995 11.0337C4.27068 11.5975 5.80769 12.1497 7.34351 12.7036Z" stroke="#8C8C8C" stroke-width="0.7"/>
<path d="M12.9282 0.929199C15.6076 0.932897 17.8089 3.17239 17.7769 5.86377C17.7446 8.55012 15.574 10.6813 12.8794 10.6714C10.2137 10.66 8.04941 8.46907 8.06299 5.78564C8.0755 3.11377 10.2708 0.925534 12.9282 0.929199ZM14.9712 3.81299C14.8708 3.81455 14.7675 3.83314 14.6743 3.85889C14.4976 3.90771 14.2852 4.00139 14.1421 4.13525C13.4699 4.76239 12.828 5.43272 12.1187 6.15869C12.0722 6.10061 12.0252 6.04345 11.9751 5.98291C11.8538 5.83633 11.7204 5.6883 11.5552 5.56689C11.3913 5.44671 11.1977 5.41976 11.0718 5.40771C11.0057 5.4014 10.9346 5.39741 10.8813 5.39404C10.8229 5.39035 10.7771 5.38656 10.7378 5.38037L10.2544 5.3042L10.3384 5.78564C10.3453 5.82576 10.3494 5.87284 10.354 5.93213C10.3582 5.98604 10.3633 6.05785 10.3706 6.12451C10.3846 6.25238 10.4141 6.44545 10.5337 6.60889H10.5347C10.6752 6.80036 10.8386 6.96632 10.9917 7.11475C11.1512 7.26932 11.2917 7.39906 11.4233 7.54248H11.4243C11.6212 7.75594 11.8672 7.92146 12.1694 7.90576C12.3852 7.8945 12.5694 7.79259 12.7251 7.6626L12.8716 7.52588C13.2532 7.12972 13.6383 6.7438 14.0259 6.35791L15.1948 5.18896C15.2302 5.15315 15.3117 5.07469 15.3677 5.01514C15.4297 4.94913 15.5073 4.85992 15.562 4.75244C15.6191 4.64015 15.662 4.48656 15.6187 4.31396C15.5761 4.14492 15.4648 4.01557 15.3345 3.91748L15.2358 3.86084C15.1361 3.81783 15.0362 3.81198 14.9712 3.81299Z" stroke="#8C8C8C" stroke-width="0.7"/>
<path d="M2.88306 16.4766L3.26392 16.6025C5.07955 17.2557 6.89881 17.9284 8.72388 18.5703C9.26269 18.7593 9.70114 18.9067 10.0667 18.9834C10.4369 19.0611 10.7711 19.0749 11.092 18.9629C11.411 18.8515 11.6699 18.6325 11.9231 18.3408C11.9929 18.2604 12.0641 18.1714 12.1379 18.0752V25.5107C11.4369 25.2723 10.7672 25.0477 10.1008 24.8086C8.07542 24.0815 6.05136 23.3448 4.02759 22.6094C3.4585 22.4026 3.21147 22.247 3.07935 22.0605C2.98084 21.9215 2.92103 21.7292 2.89673 21.3896L2.88403 20.9971L2.88208 16.4756L2.88306 16.4766Z" stroke="#8C8C8C" stroke-width="0.7"/>
<path d="M22.9172 16.4858C22.9226 18.2675 22.9513 19.9658 22.8801 21.6646C22.8767 21.7428 22.8183 21.8986 22.6877 22.0698C22.5914 22.1962 22.4867 22.2896 22.4026 22.3433L22.3264 22.3833C19.4721 23.4602 16.5927 24.4652 13.7122 25.4907V18.1782C13.967 18.5188 14.2759 18.7761 14.6438 18.9194C15.1035 19.0985 15.6108 19.0851 16.1389 18.9009C18.2961 18.1479 20.4447 17.3629 22.592 16.5942L22.593 16.5952C22.6997 16.5573 22.8055 16.5228 22.9172 16.4858Z" stroke="#8C8C8C" stroke-width="0.7"/>
<path d="M7.49609 9.17236C7.55122 9.24066 7.59952 9.30244 7.64648 9.37158V9.37256C10.1258 12.9953 15.2745 13.116 17.9307 9.71338L18.1797 9.37256C18.2835 9.22124 18.3358 9.19758 18.3496 9.19287C18.3577 9.19011 18.4042 9.17513 18.5605 9.23584L18.5615 9.23682C19.3755 9.55186 20.1989 9.84857 21.0752 10.1655C20.0769 10.5328 19.143 10.8784 18.2061 11.2173C16.5727 11.8089 14.9437 12.4027 13.3057 12.9663H13.3047C13.0672 13.0485 12.8042 13.0695 12.6523 13.0161C10.0083 12.086 7.37235 11.1277 4.7334 10.1724C5.66586 9.83502 6.57359 9.50531 7.49609 9.17236Z" stroke="#8C8C8C" stroke-width="0.7"/>
</g>
<defs>
<clipPath id="clip0_6010_3627">
<rect width="24" height="25.4206" fill="white" transform="translate(0.925537 0.57959)"/>
</clipPath>
</defs>
</svg>
