<svg width="20" height="20" viewBox="0 0 20 20" fill="none" xmlns="http://www.w3.org/2000/svg">
<path d="M13.6584 10.2516H16.4987C16.498 10.2375 16.4943 10.2243 16.4943 10.2105C16.4943 9.64625 16.9517 9.18782 17.5167 9.18782V5.70645C16.9517 5.70645 16.4943 5.24869 16.4943 4.68408H13.8081C14.4671 5.39532 14.8726 6.34454 14.8726 7.39016C14.8726 8.51365 14.4058 9.52759 13.6584 10.2516ZM16.0463 6.69241C16.4053 6.69241 16.6969 6.98365 16.6969 7.34331C16.6969 7.70298 16.406 7.99388 16.0463 7.99388C15.6867 7.99388 15.3951 7.70298 15.3951 7.34331C15.3954 6.98365 15.687 6.69241 16.0463 6.69241Z" fill="#454545"/>
<path d="M4.19312 5.72658V9.20862C4.7584 9.20862 5.21582 9.66671 5.21582 10.2313C5.21582 10.2384 5.2138 10.2445 5.2138 10.2519H8.11538C7.36605 9.52784 6.90021 8.5139 6.90021 7.39041C6.90021 6.34445 7.30572 5.39557 7.96538 4.68433H5.2138C5.2138 4.69174 5.21582 4.69781 5.21582 4.70455C5.21649 5.26882 4.75874 5.72658 4.19312 5.72658ZM5.9638 7.49524C5.9638 7.8303 5.69211 8.10266 5.35705 8.10266C5.02233 8.10266 4.75031 7.8303 4.75031 7.49524C4.75031 7.16086 5.02233 6.88917 5.35705 6.88917C5.69279 6.88951 5.9638 7.16086 5.9638 7.49524Z" fill="#454545"/>
<path d="M10.887 10.6516C12.6883 10.6516 14.1489 9.19137 14.1489 7.39001C14.1489 5.58899 12.6883 4.12842 10.887 4.12842C9.08563 4.12842 7.62573 5.58899 7.62573 7.39001C7.62573 9.19137 9.08563 10.6516 10.887 10.6516ZM11.4941 7.72709C11.4449 7.68024 11.3727 7.62866 11.276 7.57068C11.1806 7.51271 11.0582 7.44967 10.9079 7.38091C10.5991 7.2427 10.3972 7.11596 10.2998 6.999C10.1454 6.82607 10.0686 6.61911 10.0686 6.37708C10.0686 6.26281 10.0874 6.15629 10.1228 6.05719C10.1596 5.95944 10.2125 5.8691 10.2816 5.78955C10.3514 5.70966 10.4366 5.63989 10.5388 5.58056C10.6402 5.52157 10.7559 5.47607 10.884 5.44269V4.9755H11.3013V5.44269C11.489 5.47303 11.642 5.53472 11.7614 5.62843C11.8807 5.72281 11.9933 5.86607 12.1025 6.05989L11.6377 6.32012C11.4974 6.06528 11.3147 5.9382 11.0892 5.9382C10.949 5.9382 10.8331 5.97899 10.741 6.06225C10.6487 6.14517 10.6028 6.24832 10.6028 6.3727C10.6028 6.48529 10.6396 6.57866 10.7141 6.65315C10.7875 6.7263 10.9355 6.81326 11.1577 6.91304C11.3495 7.00136 11.5092 7.08293 11.635 7.16046C11.76 7.23731 11.8544 7.31214 11.9188 7.38327C12.0985 7.57709 12.1881 7.8117 12.1881 8.08608C12.1881 8.35676 12.1069 8.59473 11.9451 8.8017C11.784 9.00665 11.5692 9.14586 11.3013 9.21597V9.71013H10.884V9.23081C10.5725 9.18024 10.3342 9.07238 10.171 8.90889C10.0075 8.74507 9.88687 8.49327 9.80934 8.1508L10.3338 8.04125C10.405 8.28294 10.4926 8.45518 10.5957 8.55799C10.7033 8.65743 10.8479 8.70597 11.0269 8.70597C11.2025 8.70597 11.3481 8.64968 11.4658 8.53676C11.5824 8.42586 11.64 8.28125 11.64 8.10563C11.639 7.94889 11.5911 7.82248 11.4941 7.72709Z" fill="#454545"/>
<path d="M19.6622 0.59082H5.16774C4.98134 0.59082 4.83066 0.741495 4.83066 0.927901V3.37072H3.34245C3.15605 3.37072 3.00537 3.5214 3.00537 3.7078V11.283C3.00537 11.4698 3.15605 11.6201 3.34245 11.6201H18.5391C18.7258 11.6201 18.8761 11.4698 18.8761 11.283V3.7078C18.8761 3.5214 18.7258 3.37072 18.5391 3.37072H5.50516V1.26498H19.3255V9.62525C19.3255 9.81166 19.4761 9.96233 19.6625 9.96233C19.8493 9.96233 19.9996 9.81166 19.9996 9.62525V0.927901C19.9993 0.741495 19.8489 0.59082 19.6622 0.59082ZM18.202 10.9459H3.67953V4.04488H18.202V10.9459Z" fill="#454545"/>
<path d="M19.662 13.4278H19.6613L18.0885 13.4312C17.9648 13.4316 17.8509 13.4996 17.7922 13.6085L16.4267 16.1508H11.8168L11.0863 15.4766H12.9204C12.9959 15.4766 13.0684 15.4517 13.1277 15.4055L13.8652 14.8308C13.9424 14.7698 13.9896 14.6788 13.9947 14.5803C13.9994 14.4819 13.9599 14.3865 13.8888 14.3191L13.0394 13.5226C12.9763 13.4639 12.8941 13.4312 12.8085 13.4312L9.38913 13.4278C8.4416 13.0557 7.50216 12.8669 6.59575 12.8669C4.99563 12.8669 4.05146 13.4555 4.02787 13.471L0.172004 15.632C0.0873965 15.6795 0.0270591 15.7611 0.00717139 15.8562C-0.0127164 15.9509 0.00919387 16.0503 0.0675088 16.1282L2.42707 19.2742C2.4928 19.3621 2.59393 19.409 2.69707 19.409C2.7564 19.409 2.8164 19.3935 2.87033 19.3605L4.26012 18.5259L6.12518 18.8454L12.3854 19.407C12.4107 19.4097 12.437 19.409 12.4626 19.405L18.0245 18.6182C18.135 18.6024 18.2304 18.5333 18.2803 18.4332L19.9657 14.9932C19.9876 14.9467 20.0001 14.8965 20.0001 14.8453V13.7643C20.0001 13.6746 19.965 13.5886 19.901 13.5256C19.8373 13.4636 19.7517 13.4278 19.662 13.4278ZM19.3249 14.7681L17.7524 17.9774L12.4067 18.7328L6.21181 18.178L4.25068 17.8409C4.2318 17.8375 4.21293 17.8358 4.19371 17.8358C4.1327 17.8358 4.07304 17.8524 4.02012 17.8841L2.7837 18.6263L0.837401 16.0315L4.37304 14.0501C4.38079 14.0447 5.20529 13.5408 6.59642 13.5408C7.43609 13.5408 8.31216 13.7214 9.20003 14.0774C9.23981 14.0939 9.28228 14.1017 9.32509 14.1017L12.675 14.105L13.1402 14.5409L12.8048 14.8021H10.2241C10.0852 14.8021 9.96116 14.8871 9.90992 15.0165C9.8597 15.1459 9.89341 15.2929 9.99521 15.387L11.4561 16.7353C11.5188 16.7933 11.6004 16.8253 11.685 16.8253H16.6286C16.7527 16.8253 16.8669 16.7572 16.9256 16.648L18.2918 14.1054L19.3253 14.103L19.3249 14.7681Z" fill="#454545"/>
</svg>
