<svg width="48" height="20" viewBox="0 0 48 20" fill="none" xmlns="http://www.w3.org/2000/svg">
<path d="M15.7756 8.65658C15.7763 8.14647 15.7328 7.63725 15.6458 7.13452H8.53735V10.0175H12.6087C12.5254 10.4779 12.3491 10.9169 12.0904 11.3078C11.8316 11.6988 11.4959 12.0336 11.1033 12.2923V14.1636H13.5332C14.9559 12.8609 15.7756 10.9345 15.7756 8.65658Z" fill="#4285F4"/>
<path d="M8.53745 15.9718C10.5716 15.9718 12.2843 15.3085 13.5333 14.1649L11.1034 12.2935C10.4271 12.7489 9.55608 13.0088 8.53745 13.0088C6.57137 13.0088 4.90261 11.6926 4.30587 9.91895H1.80273V11.8475C2.43011 13.0873 3.39212 14.1295 4.58136 14.8578C5.7706 15.5861 7.14027 15.9718 8.53745 15.9718Z" fill="#34A853"/>
<path d="M4.30577 9.91861C3.9903 8.9892 3.9903 7.98272 4.30577 7.05332V5.12476H1.80263C1.27486 6.16769 1 7.31874 1 8.48596C1 9.65319 1.27486 10.8042 1.80263 11.8472L4.30577 9.91861Z" fill="#FBBC04"/>
<path d="M8.53745 3.96351C9.61239 3.94607 10.6511 4.34941 11.429 5.08634L13.5804 2.94985C12.2162 1.67739 10.4089 0.978784 8.53745 1.00049C7.14027 1.00055 5.7706 1.38626 4.58136 2.11455C3.39212 2.84283 2.43011 3.88504 1.80273 5.12481L4.30587 7.05337C4.90261 5.27971 6.57137 3.96351 8.53745 3.96351Z" fill="#EA4335"/>
<path d="M22.5869 9.79369V15.0699H20.9014V2.03994H25.3716C25.9052 2.02887 26.4357 2.12285 26.9326 2.31646C27.4294 2.51007 27.8827 2.79947 28.2663 3.16796C28.6538 3.51409 28.9622 3.93857 29.1707 4.41288C29.3793 4.88719 29.4832 5.40035 29.4755 5.91785C29.4866 6.43813 29.3843 6.95463 29.1756 7.43197C28.9669 7.9093 28.6567 8.33618 28.2663 8.68334C27.4846 9.42357 26.5197 9.79334 25.3716 9.79265H22.5869V9.79369ZM22.5869 3.64413V8.19262H25.4135C25.7234 8.20174 26.0318 8.14653 26.3189 8.03053C26.6061 7.91452 26.8657 7.74027 27.0812 7.51892C27.2956 7.31197 27.466 7.06443 27.5823 6.79094C27.6987 6.51746 27.7586 6.22358 27.7586 5.92669C27.7586 5.6298 27.6987 5.33592 27.5823 5.06244C27.466 4.78895 27.2956 4.54141 27.0812 4.33446C26.8684 4.10844 26.6097 3.92992 26.3222 3.81073C26.0347 3.69154 25.7249 3.63439 25.4135 3.64309H22.5869V3.64413Z" fill="white"/>
<path d="M33.3593 5.86401C34.6051 5.86401 35.5885 6.19462 36.3095 6.85585C37.0305 7.51707 37.3906 8.42365 37.3899 9.57558V15.0702H35.7777V13.833H35.7044C35.0065 14.8518 34.0782 15.3613 32.9196 15.3613C31.9307 15.3613 31.1033 15.0702 30.4374 14.488C30.1179 14.2207 29.8624 13.8861 29.6897 13.5084C29.5169 13.1307 29.4311 12.7195 29.4387 12.3047C29.4387 11.3822 29.7898 10.6485 30.4919 10.1037C31.194 9.55895 32.1313 9.28587 33.3039 9.28448C34.3047 9.28448 35.1289 9.46642 35.7766 9.8303V9.44771C35.7785 9.16494 35.7171 8.88529 35.5966 8.62905C35.4762 8.3728 35.2999 8.14638 35.0804 7.9662C34.6347 7.56684 34.0538 7.34894 33.4536 7.35592C32.512 7.35592 31.767 7.7503 31.2184 8.53905L29.7339 7.61064C30.5505 6.44622 31.759 5.86401 33.3593 5.86401ZM31.1786 12.3411C31.1775 12.5541 31.2277 12.7643 31.3249 12.9542C31.4221 13.1441 31.5637 13.3081 31.7377 13.4327C32.1105 13.7239 32.5732 13.8782 33.0474 13.8694C33.7586 13.8682 34.4404 13.587 34.9433 13.0875C35.5016 12.5656 35.7808 11.9533 35.7808 11.2505C35.2553 10.8346 34.5224 10.6267 33.5823 10.6267C32.8977 10.6267 32.3267 10.7906 31.8696 11.1184C31.4079 11.4511 31.1786 11.8555 31.1786 12.3411Z" fill="white"/>
<path d="M46.6446 6.15503L41.0165 19H39.2765L41.3651 14.5055L37.6643 6.15503H39.4964L42.1712 12.5593H42.2079L44.8094 6.15503H46.6446Z" fill="white"/>
</svg>
