<svg width="21" height="20" viewBox="0 0 21 20" fill="none" xmlns="http://www.w3.org/2000/svg">
<path d="M10.1384 0.5C10.617 0.500001 11.0922 0.626675 11.7205 0.919922C12.359 1.21795 13.1175 1.6695 14.1707 2.29688L15.5554 3.12109C16.7151 3.8119 17.5506 4.31086 18.1667 4.77441C18.7732 5.23066 19.1292 5.62555 19.3523 6.09082C19.5753 6.55592 19.6593 7.07884 19.6335 7.83301C19.6074 8.59963 19.4704 9.55736 19.2791 10.8867L19.0007 12.8242C18.7552 14.5307 18.5764 15.7637 18.3181 16.6992C18.0636 17.6209 17.7474 18.1926 17.2634 18.6094C16.779 19.0265 16.1632 19.257 15.2068 19.377C14.2366 19.4986 12.9809 19.5 11.2449 19.5H9.03198C7.29596 19.5 6.04021 19.4986 5.07007 19.377C4.1137 19.257 3.49781 19.0265 3.01343 18.6094C2.52947 18.1926 2.2132 17.6209 1.95874 16.6992C1.70046 15.7637 1.52166 14.5307 1.27612 12.8242L0.997803 10.8867C0.806527 9.55736 0.669468 8.59963 0.643311 7.83301C0.617595 7.07884 0.701586 6.55592 0.924561 6.09082C1.14766 5.62555 1.5037 5.23065 2.11011 4.77441C2.72627 4.31086 3.56177 3.8119 4.72144 3.12109L6.1062 2.29688C7.15939 1.6695 7.91788 1.21796 8.5564 0.919922C9.18467 0.626674 9.65988 0.5 10.1384 0.5ZM7.13843 14.75C6.44812 14.7501 5.88843 15.3097 5.88843 16C5.88854 16.6902 6.44818 17.2499 7.13843 17.25H13.1384C13.8287 17.25 14.3883 16.6903 14.3884 16C14.3884 15.3097 13.8288 14.75 13.1384 14.75H7.13843Z" fill="#FF8C00" stroke="black"/>
</svg>
